<svg width="30" height="30" viewBox="0 0 30 30" fill="none" xmlns="http://www.w3.org/2000/svg">
<g clip-path="url(#clip0)">
<path d="M29.9525 15.2317C30.0491 14.998 29.9953 14.729 29.8163 14.5505L18.5663 3.30045C18.318 3.06063 17.9223 3.06754 17.6825 3.3158C17.4486 3.55803 17.4486 3.94199 17.6825 4.18416L27.8663 14.3679H0.62502C0.279844 14.368 0 14.6478 0 14.993C0 15.3382 0.279844 15.618 0.62502 15.618H27.8663L17.6838 25.8005C17.4355 26.0403 17.4286 26.436 17.6684 26.6843C17.9082 26.9325 18.3039 26.9394 18.5522 26.6996C18.5574 26.6946 18.5625 26.6895 18.5675 26.6843L29.8175 15.4343C29.8753 15.3762 29.9212 15.3074 29.9525 15.2317Z" fill="#2196F3"/>
<path d="M18.125 26.8679C17.7798 26.8685 17.4995 26.5891 17.4988 26.244C17.4985 26.0776 17.5646 25.9179 17.6825 25.8004L28.4913 14.9929L17.6825 4.18542C17.4427 3.93716 17.4496 3.54147 17.6978 3.30165C17.9401 3.06774 18.324 3.06774 18.5662 3.30165L29.8162 14.5517C30.0602 14.7957 30.0602 15.1913 29.8162 15.4354L18.5662 26.6854C18.4491 26.8023 18.2904 26.8679 18.125 26.8679Z" fill="black"/>
<path d="M29.375 15.6179H0.62502C0.279844 15.6179 0 15.3381 0 14.9929C0 14.6478 0.279844 14.3679 0.62502 14.3679H29.375C29.7202 14.3679 30.0001 14.6478 30.0001 14.9929C30 15.3381 29.7202 15.6179 29.375 15.6179Z" fill="black"/>
</g>
<defs>
<clipPath id="clip0">
<rect width="30" height="30" fill="white"/>
</clipPath>
</defs>
</svg>
