<svg width="17" height="17" viewBox="0 0 17 17" fill="none" xmlns="http://www.w3.org/2000/svg">
<path d="M16.4709 2.06876L14.9304 0.528135C14.2265 -0.175736 13.0814 -0.175703 12.3775 0.528135C11.7148 1.1909 1.59264 11.3138 0.916194 11.9903C0.844144 12.0623 0.795866 12.1581 0.778667 12.2518L0.00842269 16.4115C-0.0214269 16.5727 0.0299715 16.7384 0.14595 16.8543C0.262061 16.9705 0.427744 17.0218 0.588812 16.9919L4.74813 16.2216C4.84425 16.2036 4.93874 16.1549 5.0096 16.084L16.4709 4.62184C17.1764 3.91634 17.1765 2.77436 16.4709 2.06876ZM1.11973 15.8805L1.58567 13.3642L3.63582 15.4145L1.11973 15.8805ZM4.65745 15.0274L1.97268 12.3425L11.7746 2.53988L14.4593 5.22484L4.65745 15.0274ZM15.7666 3.9175L15.1636 4.5205L12.4789 1.83554L13.0818 1.23254C13.3973 0.917043 13.9105 0.91701 14.2261 1.23254L15.7666 2.77316C16.0828 3.08942 16.0828 3.60121 15.7666 3.9175Z" fill="white"/>
</svg>
