<svg width="17" height="17" viewBox="0 0 17 17" fill="none" xmlns="http://www.w3.org/2000/svg">
<g clip-path="url(#clip0)">
<path d="M10.8449 6.15918C10.625 6.15918 10.4468 6.3374 10.4468 6.55731V14.0819C10.4468 14.3016 10.625 14.48 10.8449 14.48C11.0648 14.48 11.243 14.3016 11.243 14.0819V6.55731C11.243 6.3374 11.0648 6.15918 10.8449 6.15918Z" fill="white"/>
<path d="M6.14701 6.15918C5.92711 6.15918 5.74889 6.3374 5.74889 6.55731V14.0819C5.74889 14.3016 5.92711 14.48 6.14701 14.48C6.36692 14.48 6.54514 14.3016 6.54514 14.0819V6.55731C6.54514 6.3374 6.36692 6.15918 6.14701 6.15918Z" fill="white"/>
<path d="M2.72313 5.06082V14.8698C2.72313 15.4496 2.93573 15.994 3.3071 16.3847C3.67677 16.7764 4.19122 16.9988 4.72962 16.9998H12.2623C12.8008 16.9988 13.3153 16.7764 13.6848 16.3847C14.0562 15.994 14.2688 15.4496 14.2688 14.8698V5.06082C15.007 4.86487 15.4854 4.15166 15.3866 3.39414C15.2877 2.63677 14.6425 2.07021 13.8786 2.07006H11.8402V1.5724C11.8425 1.1539 11.6771 0.752047 11.3808 0.456408C11.0845 0.160924 10.6821 -0.00361322 10.2636 -0.00019183H6.72833C6.30984 -0.00361322 5.90736 0.160924 5.6111 0.456408C5.31483 0.752047 5.14936 1.1539 5.1517 1.5724V2.07006H3.11333C2.34942 2.07021 1.70418 2.63677 1.60527 3.39414C1.50652 4.15166 1.98489 4.86487 2.72313 5.06082ZM12.2623 16.2035H4.72962C4.04892 16.2035 3.51938 15.6188 3.51938 14.8698V5.09581H13.4725V14.8698C13.4725 15.6188 12.943 16.2035 12.2623 16.2035ZM5.94795 1.5724C5.9453 1.3651 6.02679 1.16557 6.17391 1.01923C6.32088 0.872884 6.52087 0.792482 6.72833 0.796059H10.2636C10.471 0.792482 10.671 0.872884 10.818 1.01923C10.9651 1.16541 11.0466 1.3651 11.0439 1.5724V2.07006H5.94795V1.5724ZM3.11333 2.86631H13.8786C14.2744 2.86631 14.5952 3.18714 14.5952 3.58293C14.5952 3.97873 14.2744 4.29956 13.8786 4.29956H3.11333C2.71753 4.29956 2.3967 3.97873 2.3967 3.58293C2.3967 3.18714 2.71753 2.86631 3.11333 2.86631Z" fill="white"/>
<path d="M8.49595 6.15918C8.27605 6.15918 8.09782 6.3374 8.09782 6.55731V14.0819C8.09782 14.3016 8.27605 14.48 8.49595 14.48C8.71585 14.48 8.89408 14.3016 8.89408 14.0819V6.55731C8.89408 6.3374 8.71585 6.15918 8.49595 6.15918Z" fill="white"/>
</g>
<defs>
<clipPath id="clip0">
<rect width="17" height="17" fill="white"/>
</clipPath>
</defs>
</svg>
